<mxfile host="app.diagrams.net" modified="2022-05-09T23:13:10.843Z" agent="5.0 (Windows NT 10.0; Win64; x64) AppleWebKit/537.36 (KHTML, like Gecko) Chrome/101.0.4951.54 Safari/537.36" etag="BVd8yTeUEeeSfvgaoc3z" version="17.5.0" type="github">
  <diagram id="R2lEEEUBdFMjLlhIrx00" name="Page-1">
    <mxGraphModel dx="1038" dy="546" grid="1" gridSize="10" guides="1" tooltips="1" connect="1" arrows="1" fold="1" page="1" pageScale="1" pageWidth="850" pageHeight="1100" math="0" shadow="0" extFonts="Permanent Marker^https://fonts.googleapis.com/css?family=Permanent+Marker">
      <root>
        <mxCell id="0" />
        <mxCell id="1" parent="0" />
        <mxCell id="M0097tMdwsT1JYzbOrZ6-18" style="edgeStyle=orthogonalEdgeStyle;rounded=0;orthogonalLoop=1;jettySize=auto;html=1;" parent="1" source="M0097tMdwsT1JYzbOrZ6-1" edge="1">
          <mxGeometry relative="1" as="geometry">
            <mxPoint x="190" y="300" as="targetPoint" />
          </mxGeometry>
        </mxCell>
        <mxCell id="M0097tMdwsT1JYzbOrZ6-1" value="Usuario" style="shape=umlActor;verticalLabelPosition=bottom;verticalAlign=top;html=1;outlineConnect=0;" parent="1" vertex="1">
          <mxGeometry x="50" y="150" width="30" height="60" as="geometry" />
        </mxCell>
        <mxCell id="M0097tMdwsT1JYzbOrZ6-3" value="Actualizar" style="rounded=0;whiteSpace=wrap;html=1;" parent="1" vertex="1">
          <mxGeometry x="610" y="160" width="90" height="40" as="geometry" />
        </mxCell>
        <mxCell id="M0097tMdwsT1JYzbOrZ6-17" style="edgeStyle=orthogonalEdgeStyle;rounded=0;orthogonalLoop=1;jettySize=auto;html=1;entryX=0;entryY=0.5;entryDx=0;entryDy=0;" parent="1" source="M0097tMdwsT1JYzbOrZ6-4" target="cFm9Na95Q6sB4yXjehla-7" edge="1">
          <mxGeometry relative="1" as="geometry">
            <mxPoint x="190" y="300" as="targetPoint" />
          </mxGeometry>
        </mxCell>
        <mxCell id="M0097tMdwsT1JYzbOrZ6-4" value="Usuario" style="shape=umlActor;verticalLabelPosition=bottom;verticalAlign=top;html=1;outlineConnect=0;" parent="1" vertex="1">
          <mxGeometry x="50" y="270" width="30" height="60" as="geometry" />
        </mxCell>
        <mxCell id="M0097tMdwsT1JYzbOrZ6-5" value="Crear" style="rounded=0;whiteSpace=wrap;html=1;" parent="1" vertex="1">
          <mxGeometry x="610" y="230" width="90" height="40" as="geometry" />
        </mxCell>
        <mxCell id="M0097tMdwsT1JYzbOrZ6-6" value="Leer" style="rounded=0;whiteSpace=wrap;html=1;" parent="1" vertex="1">
          <mxGeometry x="610" y="290" width="90" height="40" as="geometry" />
        </mxCell>
        <mxCell id="M0097tMdwsT1JYzbOrZ6-7" value="Eliminar" style="rounded=0;whiteSpace=wrap;html=1;" parent="1" vertex="1">
          <mxGeometry x="610" y="350" width="90" height="40" as="geometry" />
        </mxCell>
        <mxCell id="M0097tMdwsT1JYzbOrZ6-16" style="edgeStyle=orthogonalEdgeStyle;rounded=0;orthogonalLoop=1;jettySize=auto;html=1;entryX=0;entryY=0.5;entryDx=0;entryDy=0;" parent="1" source="M0097tMdwsT1JYzbOrZ6-13" edge="1">
          <mxGeometry relative="1" as="geometry">
            <mxPoint x="190" y="300" as="targetPoint" />
          </mxGeometry>
        </mxCell>
        <mxCell id="M0097tMdwsT1JYzbOrZ6-13" value="Usuario" style="shape=umlActor;verticalLabelPosition=bottom;verticalAlign=top;html=1;outlineConnect=0;" parent="1" vertex="1">
          <mxGeometry x="50" y="370" width="30" height="60" as="geometry" />
        </mxCell>
        <mxCell id="cFm9Na95Q6sB4yXjehla-1" value="Actualizar contraseña" style="rounded=0;whiteSpace=wrap;html=1;" vertex="1" parent="1">
          <mxGeometry x="350" y="170" width="120" height="30" as="geometry" />
        </mxCell>
        <mxCell id="cFm9Na95Q6sB4yXjehla-10" value="" style="edgeStyle=orthogonalEdgeStyle;rounded=0;orthogonalLoop=1;jettySize=auto;html=1;fontFamily=Helvetica;fontSize=12;" edge="1" parent="1" source="cFm9Na95Q6sB4yXjehla-2" target="cFm9Na95Q6sB4yXjehla-4">
          <mxGeometry relative="1" as="geometry" />
        </mxCell>
        <mxCell id="cFm9Na95Q6sB4yXjehla-2" value="Iniciar sesión" style="rounded=0;whiteSpace=wrap;html=1;" vertex="1" parent="1">
          <mxGeometry x="350" y="220" width="120" height="30" as="geometry" />
        </mxCell>
        <mxCell id="cFm9Na95Q6sB4yXjehla-3" value="Guardar ejercicio" style="rounded=0;whiteSpace=wrap;html=1;" vertex="1" parent="1">
          <mxGeometry x="350" y="275" width="120" height="30" as="geometry" />
        </mxCell>
        <mxCell id="cFm9Na95Q6sB4yXjehla-4" value="Habilitar usuarios" style="rounded=0;whiteSpace=wrap;html=1;" vertex="1" parent="1">
          <mxGeometry x="350" y="330" width="120" height="30" as="geometry" />
        </mxCell>
        <mxCell id="cFm9Na95Q6sB4yXjehla-7" value="&lt;font style=&quot;font-size: 12px&quot;&gt;Rol&amp;nbsp;&lt;span lang=&quot;ES-MX&quot; style=&quot;line-height: 107%; color: rgb(34, 34, 34); background: white;&quot;&gt;(Docente, Discente, Administrador y Supervisor).&lt;/span&gt;&lt;/font&gt;" style="ellipse;whiteSpace=wrap;html=1;fontFamily=Helvetica;fontStyle=0" vertex="1" parent="1">
          <mxGeometry x="210" y="260" width="120" height="80" as="geometry" />
        </mxCell>
        <mxCell id="cFm9Na95Q6sB4yXjehla-8" value="Funcion" style="text;html=1;strokeColor=none;fillColor=none;align=center;verticalAlign=middle;whiteSpace=wrap;rounded=0;" vertex="1" parent="1">
          <mxGeometry x="365" y="90" width="60" height="30" as="geometry" />
        </mxCell>
        <mxCell id="cFm9Na95Q6sB4yXjehla-11" value="configurar ejercicio" style="rounded=0;whiteSpace=wrap;html=1;" vertex="1" parent="1">
          <mxGeometry x="350" y="380" width="120" height="30" as="geometry" />
        </mxCell>
        <mxCell id="cFm9Na95Q6sB4yXjehla-12" value="Accion" style="text;html=1;strokeColor=none;fillColor=none;align=center;verticalAlign=middle;whiteSpace=wrap;rounded=0;" vertex="1" parent="1">
          <mxGeometry x="620" y="90" width="60" height="30" as="geometry" />
        </mxCell>
      </root>
    </mxGraphModel>
  </diagram>
</mxfile>
